<svg xmlns="http://www.w3.org/2000/svg" xmlns:xlink="http://www.w3.org/1999/xlink" xml:space="preserve" version="1.1" style="shape-rendering:geometricPrecision;text-rendering:geometricPrecision;image-rendering:optimizeQuality;" viewBox="0 0 177 302.5" x="0px" y="0px" fill-rule="evenodd" clip-rule="evenodd"><defs><style type="text/css">
   
    .fil0 {fill:black}
   
  </style></defs><g><path class="fil0" d="M90 151c-1,31 -11,59 -1,90l-4 1c-9,-30 -1,-56 1,-83 1,-9 0,-13 -1,-16 -6,5 -13,21 -31,29 0,0 4,-11 -1,-18 -6,-7 -26,0 -26,0 4,-10 -3,-17 -12,-18 -3,-1 -15,0 -15,0 8,-4 34,-12 31,-23 -2,-7 -19,-20 -20,-20 -2,-1 -11,-4 -11,-4 17,-1 25,-14 17,-20 4,-8 -4,-24 -7,-28 14,9 25,21 38,12 1,9 8,17 18,19 0,0 -2,-25 -2,-30 0,-4 -4,-16 -4,-16 11,11 15,1 20,-7 1,-3 5,-2 5,-6 1,-5 5,-13 5,-13 1,5 2,10 3,15 2,1 3,3 5,5 2,10 10,16 18,8 -3,11 -6,34 -4,45 13,-5 15,-8 18,-20 0,0 2,5 11,4 8,0 23,-16 23,-16 0,0 -7,12 -7,18 0,6 6,11 6,11 0,0 -9,5 -6,11 3,6 17,7 17,7 0,0 -22,10 -25,19 -4,9 -5,13 0,17 5,4 28,11 28,11 0,0 -16,1 -24,6 -8,5 -1,15 -1,15 0,0 -9,-5 -18,-4 -8,1 -10,21 -10,21 -14,-11 -23,-24 -32,-30 -1,-1 -2,-2 -3,-2 -1,-6 -1,-11 -1,-17 6,1 13,3 19,5 1,0 2,13 7,18 -6,-11 -5,-17 -5,-18 13,3 26,7 34,5 -8,0 -19,-2 -29,-5 1,-1 9,-7 23,-12 -14,5 -23,11 -24,12 -9,-3 -18,-5 -25,-6l0 -1c10,-9 22,-18 32,-25 4,0 7,0 12,-1 -2,0 -7,1 -11,0 10,-8 20,-16 25,-24 -11,11 -24,21 -36,30 0,0 -1,-5 2,-16 -3,6 -3,17 -3,17 -7,5 -14,11 -21,16 0,-9 1,-22 1,-31 10,-3 18,-11 20,-14 -9,8 -13,11 -20,12 2,-18 3,-36 -1,-49 1,11 1,23 1,34 -7,-9 -12,-12 -18,-23 7,14 14,18 17,25 0,12 -2,24 -2,37 -7,-5 -15,-11 -23,-16 -1,0 0,-9 -3,-17 2,11 2,16 1,16 -8,-6 -18,-13 -24,-19 5,8 19,17 33,26 1,0 -9,4 -23,7 13,-1 24,-6 25,-6 5,4 10,7 14,11 0,4 -1,9 0,14 -8,1 -18,4 -28,7 0,0 -4,-2 -11,-2 8,1 10,2 11,2 -8,2 -16,3 -22,3 7,2 19,-2 30,-5 0,4 -2,12 -4,22 4,-9 4,-17 6,-22 6,-1 12,-3 18,-4 0,5 0,16 4,24z"/></g><text x="0" y="257" fill="#000000" font-size="5px" font-weight="bold" font-family="'Helvetica Neue', Helvetica, Arial-Unicode, Arial, Sans-serif">Created by kareemovic2000</text><text x="0" y="262" fill="#000000" font-size="5px" font-weight="bold" font-family="'Helvetica Neue', Helvetica, Arial-Unicode, Arial, Sans-serif">from the Noun Project</text></svg>